<svg width="305" height="58" viewBox="0 0 305 58" fill="none" xmlns="http://www.w3.org/2000/svg">
<path d="M42.416 28.264H40.816C40.816 31.528 39.496 34.472 37.352 36.616C35.208 38.76 32.264 40.072 29 40.08C25.736 40.08 22.792 38.76 20.648 36.616C18.504 34.472 17.192 31.528 17.184 28.264C17.184 25 18.504 22.056 20.648 19.912C22.792 17.768 25.736 16.4559 29 16.4479C32.264 16.4479 35.208 17.768 37.352 19.912C39.496 22.056 40.808 25 40.816 28.264H42.416H44.016C44.016 19.968 37.296 13.2479 29 13.2479C20.704 13.2479 13.984 19.968 13.984 28.264C13.984 36.56 20.704 43.28 29 43.28C37.296 43.28 44.016 36.56 44.016 28.264H42.416Z" fill="#86BB46"/>
<path d="M27.4 1.6V8.35996C27.4 9.23996 28.12 9.95996 29 9.95996C29.88 9.95996 30.6 9.23996 30.6 8.35996V1.6C30.6 0.72 29.88 0 29 0C28.12 0 27.4 0.712 27.4 1.6Z" fill="#FAAB04"/>
<path d="M27.4 48.168V54.928C27.4 55.808 28.12 56.528 29 56.528C29.88 56.528 30.6 55.808 30.6 54.928V48.168C30.6 47.288 29.88 46.568 29 46.568C28.12 46.568 27.4 47.288 27.4 48.168Z" fill="#FAAB04"/>
<path d="M46.728 8.27999L41.952 13.056C41.328 13.68 41.328 14.696 41.952 15.32C42.576 15.944 43.592 15.944 44.216 15.32L48.992 10.544C49.616 9.91995 49.616 8.90399 48.992 8.27999C48.368 7.65599 47.352 7.64799 46.728 8.27999Z" fill="#86BB46"/>
<path d="M13.8 41.208L9.02397 45.984C8.39997 46.608 8.39997 47.624 9.02397 48.248C9.64797 48.872 10.664 48.872 11.288 48.248L16.064 43.472C16.688 42.848 16.688 41.832 16.064 41.208C15.44 40.584 14.424 40.584 13.8 41.208Z" fill="#86BB46"/>
<path d="M55.664 26.664H48.904C48.024 26.664 47.304 27.384 47.304 28.264C47.304 29.144 48.024 29.864 48.904 29.864H55.664C56.544 29.864 57.264 29.144 57.264 28.264C57.264 27.376 56.552 26.664 55.664 26.664Z" fill="#FAAB04"/>
<path d="M9.096 26.664H2.33599C1.45599 26.664 0.735992 27.384 0.735992 28.264C0.735992 29.144 1.45599 29.864 2.33599 29.864H9.096C9.976 29.864 10.696 29.144 10.696 28.264C10.696 27.376 9.984 26.664 9.096 26.664Z" fill="#FAAB04"/>
<path d="M48.992 45.984L44.216 41.208C43.592 40.584 42.576 40.584 41.952 41.208C41.328 41.832 41.328 42.848 41.952 43.472L46.728 48.248C47.352 48.872 48.368 48.872 48.992 48.248C49.616 47.624 49.616 46.608 48.992 45.984Z" fill="#86BB46"/>
<path d="M16.056 13.056L11.28 8.28001C10.656 7.65601 9.63994 7.65601 9.01594 8.28001C8.39194 8.90401 8.39194 9.91998 9.01594 10.544L13.792 15.3201C14.416 15.9441 15.432 15.9441 16.056 15.3201C16.68 14.6961 16.688 13.68 16.056 13.056Z" fill="#86BB46"/>
<path d="M28.9986 30.2313V29.6692H23.3321L28.4299 20.597V26.2966C28.4299 26.4456 28.4896 26.5889 28.5977 26.6929C28.7057 26.7969 28.8507 26.8587 28.9986 26.8587H34.665L29.5672 35.9309V30.2313C29.5672 30.0823 29.5075 29.939 29.3995 29.835C29.2943 29.731 29.1464 29.6692 28.9986 29.6692V30.2313H28.4299V38.1006C28.4299 38.3563 28.6062 38.5812 28.8564 38.6458C29.1066 38.7105 29.371 38.5981 29.4961 38.376L36.1292 26.5721C36.2259 26.3978 36.2231 26.1842 36.1235 26.0128C36.0212 25.8413 35.8335 25.7345 35.6345 25.7345H29.57V18.4273C29.57 18.1716 29.3938 17.9467 29.1436 17.8821C28.8934 17.8175 28.629 17.9299 28.5039 18.1519L21.8707 29.9559C21.7741 30.1301 21.7769 30.3437 21.8764 30.5151C21.9759 30.6866 22.1664 30.7934 22.3655 30.7934H28.9986V30.2313H28.4299H28.9986Z" fill="#86BB46"/>
<path d="M66.992 33.264V9.46396H83.584V14.394H72.602V28.334H83.924V33.264H66.992ZM69.712 23.506V18.814H82.054V23.506H69.712ZM88.9061 33.264V9.46396H94.0741L106.552 26.464L105.43 26.294C105.317 25.546 105.226 24.832 105.158 24.152C105.09 23.472 105.022 22.8033 104.954 22.146C104.909 21.4886 104.863 20.82 104.818 20.14C104.795 19.46 104.773 18.7233 104.75 17.93C104.75 17.1366 104.75 16.2753 104.75 15.346V9.46396H110.36V33.264H105.124L92.1021 15.72L93.8361 15.958C93.9494 17.046 94.0401 17.9753 94.1081 18.746C94.1987 19.494 94.2667 20.1626 94.3121 20.752C94.3801 21.3413 94.4254 21.874 94.4481 22.35C94.4707 22.826 94.4821 23.302 94.4821 23.778C94.5047 24.2313 94.5161 24.7413 94.5161 25.308V33.264H88.9061ZM116.332 33.264V9.46396H132.924V14.394H121.942V28.334H133.264V33.264H116.332ZM119.052 23.506V18.814H131.394V23.506H119.052ZM138.246 33.264V9.46396H148.956C150.475 9.46396 151.846 9.79263 153.07 10.45C154.317 11.1073 155.291 12.014 155.994 13.17C156.697 14.3033 157.048 15.5953 157.048 17.046C157.048 18.542 156.697 19.8906 155.994 21.092C155.291 22.2706 154.328 23.2 153.104 23.88C151.88 24.56 150.497 24.9 148.956 24.9H143.754V33.264H138.246ZM151.438 33.264L145.386 22.52L151.302 21.67L158.034 33.264H151.438ZM143.754 20.48H148.446C149.035 20.48 149.545 20.3553 149.976 20.106C150.429 19.834 150.769 19.46 150.996 18.984C151.245 18.508 151.37 17.964 151.37 17.352C151.37 16.74 151.234 16.2073 150.962 15.754C150.69 15.278 150.293 14.9153 149.772 14.666C149.273 14.4166 148.661 14.292 147.936 14.292H143.754V20.48ZM172.837 33.604C170.933 33.604 169.21 33.298 167.669 32.686C166.128 32.074 164.802 31.2126 163.691 30.102C162.58 28.9913 161.73 27.688 161.141 26.192C160.552 24.6733 160.257 23.03 160.257 21.262C160.257 19.494 160.563 17.8733 161.175 16.4C161.81 14.904 162.705 13.6006 163.861 12.49C165.017 11.3793 166.377 10.518 167.941 9.90596C169.528 9.29396 171.25 8.98796 173.109 8.98796C174.424 8.98796 175.659 9.15796 176.815 9.49796C177.994 9.83796 179.059 10.3026 180.011 10.892C180.963 11.4813 181.768 12.1613 182.425 12.932L178.923 16.638C178.356 16.094 177.767 15.6406 177.155 15.278C176.566 14.9153 175.931 14.632 175.251 14.428C174.571 14.2013 173.846 14.088 173.075 14.088C172.078 14.088 171.16 14.2693 170.321 14.632C169.505 14.9946 168.78 15.5046 168.145 16.162C167.533 16.7966 167.057 17.556 166.717 18.44C166.377 19.3013 166.207 20.242 166.207 21.262C166.207 22.282 166.388 23.234 166.751 24.118C167.114 25.002 167.612 25.7726 168.247 26.43C168.882 27.0646 169.63 27.5746 170.491 27.96C171.375 28.3226 172.316 28.504 173.313 28.504C174.016 28.504 174.673 28.3906 175.285 28.164C175.92 27.9373 176.464 27.6313 176.917 27.246C177.37 26.8606 177.733 26.4073 178.005 25.886C178.277 25.342 178.413 24.764 178.413 24.152V23.268L179.161 24.424H172.599V19.902H183.785C183.83 20.1513 183.864 20.4913 183.887 20.922C183.91 21.3526 183.921 21.772 183.921 22.18C183.944 22.588 183.955 22.894 183.955 23.098C183.955 24.6393 183.672 26.056 183.105 27.348C182.561 28.6173 181.79 29.7166 180.793 30.646C179.796 31.5753 178.617 32.3006 177.257 32.822C175.897 33.3433 174.424 33.604 172.837 33.604ZM193.707 33.264V21.398L193.945 23.064L184.323 9.46396H190.885L198.229 20.004L195.237 19.902L201.867 9.46396H208.225L199.011 23.438L199.521 21.126V33.264H193.707Z" fill="#86BB46"/>
<path d="M210.994 33.264V9.46396H216.774V28.164H227.382V33.264H210.994ZM228.687 33.264L238.105 9.46396H243.001L252.351 33.264H246.503L242.015 21.194C241.833 20.718 241.652 20.208 241.471 19.664C241.289 19.12 241.108 18.5646 240.927 17.998C240.745 17.4086 240.564 16.842 240.383 16.298C240.224 15.7313 240.088 15.21 239.975 14.734L240.995 14.7C240.859 15.2666 240.7 15.822 240.519 16.366C240.36 16.91 240.19 17.454 240.009 17.998C239.85 18.5193 239.669 19.052 239.465 19.596C239.261 20.1173 239.068 20.6613 238.887 21.228L234.399 33.264H228.687ZM233.175 28.708L234.977 24.356H245.925L247.693 28.708H233.175ZM255.32 33.264V9.46396H260.488L272.966 26.464L271.844 26.294C271.731 25.546 271.64 24.832 271.572 24.152C271.504 23.472 271.436 22.8033 271.368 22.146C271.323 21.4886 271.277 20.82 271.232 20.14C271.209 19.46 271.187 18.7233 271.164 17.93C271.164 17.1366 271.164 16.2753 271.164 15.346V9.46396H276.774V33.264H271.538L258.516 15.72L260.25 15.958C260.363 17.046 260.454 17.9753 260.522 18.746C260.613 19.494 260.681 20.1626 260.726 20.752C260.794 21.3413 260.839 21.874 260.862 22.35C260.885 22.826 260.896 23.302 260.896 23.778C260.919 24.2313 260.93 24.7413 260.93 25.308V33.264H255.32ZM282.746 33.264V9.46396H292.708C294.453 9.46396 296.051 9.75863 297.502 10.348C298.953 10.9146 300.199 11.7306 301.242 12.796C302.307 13.8613 303.123 15.1193 303.69 16.57C304.257 18.0206 304.54 19.6186 304.54 21.364C304.54 23.1093 304.257 24.7186 303.69 26.192C303.123 27.6426 302.307 28.9006 301.242 29.966C300.199 31.0086 298.953 31.8246 297.502 32.414C296.051 32.9806 294.453 33.264 292.708 33.264H282.746ZM288.526 29.32L287.744 28.164H292.538C293.49 28.164 294.34 28.0053 295.088 27.688C295.836 27.348 296.471 26.8833 296.992 26.294C297.536 25.7046 297.955 24.9906 298.25 24.152C298.545 23.3133 298.692 22.384 298.692 21.364C298.692 20.344 298.545 19.4146 298.25 18.576C297.955 17.7373 297.536 17.0233 296.992 16.434C296.471 15.8446 295.836 15.3913 295.088 15.074C294.34 14.734 293.49 14.564 292.538 14.564H287.642L288.526 13.476V29.32Z" fill="#2C2C2C"/>
<path d="M71.9135 43.984C71.8455 44.103 71.7718 44.1908 71.6925 44.2475C71.6188 44.2985 71.5253 44.324 71.412 44.324C71.293 44.324 71.1627 44.2815 71.021 44.1965C70.885 44.1058 70.7207 44.0066 70.528 43.899C70.3353 43.7913 70.1087 43.695 69.848 43.61C69.593 43.5193 69.2898 43.474 68.9385 43.474C68.6212 43.474 68.3435 43.5136 68.1055 43.593C67.8675 43.6666 67.6663 43.7715 67.502 43.9075C67.3433 44.0435 67.2243 44.2078 67.145 44.4005C67.0657 44.5875 67.026 44.7943 67.026 45.021C67.026 45.31 67.1053 45.5508 67.264 45.7435C67.4283 45.9361 67.6437 46.1005 67.91 46.2365C68.1763 46.3725 68.4795 46.4943 68.8195 46.602C69.1595 46.7096 69.508 46.8258 69.865 46.9505C70.222 47.0695 70.5705 47.2111 70.9105 47.3755C71.2505 47.5341 71.5537 47.7381 71.82 47.9875C72.0863 48.2311 72.2988 48.5315 72.4575 48.8885C72.6218 49.2455 72.704 49.679 72.704 50.189C72.704 50.7443 72.6077 51.2656 72.415 51.753C72.228 52.2346 71.9503 52.6568 71.582 53.0195C71.2193 53.3765 70.7745 53.6598 70.2475 53.8695C69.7205 54.0735 69.117 54.1755 68.437 54.1755C68.046 54.1755 67.6607 54.1358 67.281 54.0565C66.9013 53.9828 66.5358 53.8751 66.1845 53.7335C65.8388 53.5918 65.513 53.4218 65.207 53.2235C64.901 53.0251 64.629 52.8041 64.391 52.5605L65.0625 51.464C65.1192 51.3846 65.1928 51.3195 65.2835 51.2685C65.3742 51.2118 65.4705 51.1835 65.5725 51.1835C65.7142 51.1835 65.8672 51.243 66.0315 51.362C66.1958 51.4753 66.3913 51.6028 66.618 51.7445C66.8447 51.8861 67.1082 52.0165 67.4085 52.1355C67.7145 52.2488 68.08 52.3055 68.505 52.3055C69.1567 52.3055 69.661 52.1525 70.018 51.8465C70.375 51.5348 70.5535 51.09 70.5535 50.512C70.5535 50.189 70.4713 49.9255 70.307 49.7215C70.1483 49.5175 69.9358 49.3475 69.6695 49.2115C69.4032 49.0698 69.1 48.9508 68.76 48.8545C68.42 48.7581 68.0743 48.6533 67.723 48.54C67.3717 48.4266 67.026 48.2906 66.686 48.132C66.346 47.9733 66.0428 47.7665 65.7765 47.5115C65.5102 47.2565 65.2948 46.9391 65.1305 46.5595C64.9718 46.1741 64.8925 45.701 64.8925 45.14C64.8925 44.6923 64.9803 44.256 65.156 43.831C65.3373 43.406 65.598 43.0291 65.938 42.7005C66.278 42.3718 66.6973 42.1083 67.196 41.91C67.6947 41.7116 68.267 41.6125 68.913 41.6125C69.6383 41.6125 70.307 41.7258 70.919 41.9525C71.531 42.1791 72.0523 42.4965 72.483 42.9045L71.9135 43.984ZM79.5529 45.1825C80.1989 45.1825 80.7854 45.2873 81.3124 45.497C81.845 45.7066 82.2984 46.0041 82.6724 46.3895C83.052 46.7748 83.3439 47.2451 83.5479 47.8005C83.7519 48.3558 83.8539 48.9763 83.8539 49.662C83.8539 50.3533 83.7519 50.9766 83.5479 51.532C83.3439 52.0873 83.052 52.5605 82.6724 52.9515C82.2984 53.3425 81.845 53.6428 81.3124 53.8525C80.7854 54.0621 80.1989 54.167 79.5529 54.167C78.9012 54.167 78.309 54.0621 77.7764 53.8525C77.2437 53.6428 76.7875 53.3425 76.4079 52.9515C76.0339 52.5605 75.742 52.0873 75.5324 51.532C75.3284 50.9766 75.2264 50.3533 75.2264 49.662C75.2264 48.9763 75.3284 48.3558 75.5324 47.8005C75.742 47.2451 76.0339 46.7748 76.4079 46.3895C76.7875 46.0041 77.2437 45.7066 77.7764 45.497C78.309 45.2873 78.9012 45.1825 79.5529 45.1825ZM79.5529 52.552C80.2782 52.552 80.8137 52.3083 81.1594 51.821C81.5107 51.3336 81.6864 50.6196 81.6864 49.679C81.6864 48.7383 81.5107 48.0215 81.1594 47.5285C80.8137 47.0355 80.2782 46.789 79.5529 46.789C78.8162 46.789 78.2694 47.0383 77.9124 47.537C77.561 48.03 77.3854 48.744 77.3854 49.679C77.3854 50.614 77.561 51.328 77.9124 51.821C78.2694 52.3083 78.8162 52.552 79.5529 52.552ZM88.9406 41.4085V54.0395H86.8411V41.4085H88.9406ZM96.9994 50.3165C96.3931 50.3448 95.8831 50.3986 95.4694 50.478C95.0557 50.5516 94.7242 50.648 94.4749 50.767C94.2256 50.886 94.0471 51.0248 93.9394 51.1835C93.8317 51.3421 93.7779 51.515 93.7779 51.702C93.7779 52.0703 93.8856 52.3338 94.1009 52.4925C94.3219 52.6511 94.6081 52.7305 94.9594 52.7305C95.3901 52.7305 95.7612 52.654 96.0729 52.501C96.3902 52.3423 96.6991 52.1043 96.9994 51.787V50.3165ZM92.1884 46.534C93.1914 45.616 94.3984 45.157 95.8094 45.157C96.3194 45.157 96.7756 45.242 97.1779 45.412C97.5802 45.5763 97.9202 45.8086 98.1979 46.109C98.4756 46.4036 98.6852 46.7578 98.8269 47.1715C98.9742 47.5851 99.0479 48.0385 99.0479 48.5315V54.0395H98.0959C97.8976 54.0395 97.7446 54.0111 97.6369 53.9545C97.5292 53.8921 97.4442 53.7703 97.3819 53.589L97.1949 52.96C96.9739 53.1583 96.7586 53.334 96.5489 53.487C96.3392 53.6343 96.1211 53.759 95.8944 53.861C95.6677 53.963 95.4241 54.0395 95.1634 54.0905C94.9084 54.1471 94.6251 54.1755 94.3134 54.1755C93.9451 54.1755 93.6051 54.1273 93.2934 54.031C92.9817 53.929 92.7126 53.7788 92.4859 53.5805C92.2592 53.3821 92.0836 53.1356 91.9589 52.841C91.8342 52.5463 91.7719 52.2035 91.7719 51.8125C91.7719 51.5915 91.8087 51.3733 91.8824 51.158C91.9561 50.937 92.0751 50.7273 92.2394 50.529C92.4094 50.3306 92.6276 50.1436 92.8939 49.968C93.1602 49.7923 93.4861 49.6393 93.8714 49.509C94.2624 49.3786 94.7157 49.2738 95.2314 49.1945C95.7471 49.1095 96.3364 49.0585 96.9994 49.0415V48.5315C96.9994 47.9478 96.8747 47.5171 96.6254 47.2395C96.3761 46.9561 96.0162 46.8145 95.5459 46.8145C95.2059 46.8145 94.9226 46.8541 94.6959 46.9335C94.4749 47.0128 94.2794 47.1035 94.1094 47.2055C93.9394 47.3018 93.7836 47.3896 93.6419 47.469C93.5059 47.5483 93.3529 47.588 93.1829 47.588C93.0356 47.588 92.9109 47.5511 92.8089 47.4775C92.7069 47.3981 92.6247 47.3075 92.5624 47.2055L92.1884 46.534ZM104.366 46.8315C104.638 46.3101 104.961 45.9021 105.335 45.6075C105.709 45.3071 106.151 45.157 106.661 45.157C107.063 45.157 107.386 45.2448 107.63 45.4205L107.494 46.993C107.465 47.095 107.423 47.1686 107.366 47.214C107.315 47.2536 107.244 47.2735 107.154 47.2735C107.069 47.2735 106.941 47.2593 106.771 47.231C106.607 47.2026 106.445 47.1885 106.287 47.1885C106.054 47.1885 105.848 47.2225 105.666 47.2905C105.485 47.3585 105.321 47.4576 105.173 47.588C105.032 47.7126 104.904 47.8656 104.791 48.047C104.683 48.2283 104.581 48.4351 104.485 48.6675V54.0395H102.385V45.3185H103.618C103.833 45.3185 103.983 45.3581 104.068 45.4375C104.153 45.5111 104.21 45.6471 104.238 45.8455L104.366 46.8315ZM118.242 48.2935C117.788 48.5881 117.457 48.9225 117.247 49.2965C117.043 49.6648 116.941 50.0615 116.941 50.4865C116.941 50.7981 116.995 51.0786 117.103 51.328C117.21 51.5773 117.355 51.7898 117.536 51.9655C117.723 52.1355 117.938 52.2686 118.182 52.365C118.431 52.4556 118.695 52.501 118.973 52.501C119.471 52.501 119.927 52.4245 120.341 52.2715C120.755 52.1128 121.129 51.8946 121.463 51.617L118.242 48.2935ZM126.427 54.0395H124.37C124.155 54.0395 123.979 54.014 123.843 53.963C123.713 53.912 123.574 53.8043 123.427 53.64L122.577 52.7645C122.038 53.2065 121.435 53.5521 120.766 53.8015C120.097 54.0508 119.375 54.1755 118.599 54.1755C118.128 54.1755 117.664 54.0961 117.205 53.9375C116.751 53.7731 116.346 53.538 115.989 53.232C115.632 52.926 115.343 52.5576 115.122 52.127C114.907 51.6906 114.799 51.2005 114.799 50.6565C114.799 50.2711 114.861 49.9085 114.986 49.5685C115.111 49.2228 115.284 48.9026 115.505 48.608C115.726 48.3133 115.989 48.0498 116.295 47.8175C116.601 47.5795 116.935 47.3755 117.298 47.2055C116.992 46.7805 116.771 46.3668 116.635 45.9645C116.499 45.5565 116.431 45.1513 116.431 44.749C116.431 44.324 116.508 43.9216 116.661 43.542C116.819 43.1566 117.046 42.8223 117.341 42.539C117.635 42.2556 117.998 42.0318 118.429 41.8675C118.859 41.6975 119.347 41.6125 119.891 41.6125C120.389 41.6125 120.834 41.689 121.225 41.842C121.622 41.995 121.959 42.199 122.237 42.454C122.52 42.709 122.741 43.0008 122.9 43.3295C123.064 43.6581 123.16 43.9981 123.189 44.3495L121.854 44.63C121.605 44.681 121.423 44.5733 121.31 44.307C121.259 44.1596 121.191 44.0208 121.106 43.8905C121.027 43.7545 120.93 43.6383 120.817 43.542C120.704 43.44 120.571 43.3606 120.418 43.304C120.265 43.2416 120.089 43.2105 119.891 43.2105C119.653 43.2105 119.44 43.253 119.253 43.338C119.066 43.4173 118.907 43.5278 118.777 43.6695C118.652 43.8055 118.556 43.967 118.488 44.154C118.42 44.3353 118.386 44.528 118.386 44.732C118.386 44.902 118.403 45.0663 118.437 45.225C118.471 45.3836 118.528 45.5423 118.607 45.701C118.686 45.8596 118.788 46.024 118.913 46.194C119.043 46.3583 119.202 46.5368 119.389 46.7295L122.653 50.121C122.84 49.764 122.99 49.3871 123.104 48.9905C123.217 48.5938 123.291 48.1915 123.325 47.7835C123.342 47.6531 123.387 47.5483 123.461 47.469C123.534 47.3896 123.636 47.35 123.767 47.35H125.076C125.07 48.098 124.962 48.812 124.753 49.492C124.543 50.172 124.243 50.7981 123.852 51.3705L126.427 54.0395ZM138.417 47.5965C138.848 47.5965 139.222 47.5426 139.539 47.435C139.862 47.3273 140.126 47.18 140.33 46.993C140.539 46.8003 140.695 46.5736 140.797 46.313C140.899 46.0523 140.95 45.7661 140.95 45.4545C140.95 44.8311 140.743 44.3523 140.33 44.018C139.922 43.6836 139.295 43.5165 138.451 43.5165H136.989V47.5965H138.417ZM144.299 54.0395H142.234C141.843 54.0395 141.559 53.8865 141.384 53.5805L138.8 49.645C138.703 49.4976 138.596 49.3928 138.477 49.3305C138.363 49.2681 138.193 49.237 137.967 49.237H136.989V54.0395H134.703V41.7485H138.451C139.284 41.7485 139.998 41.8363 140.593 42.012C141.194 42.182 141.684 42.4228 142.064 42.7345C142.449 43.0461 142.732 43.4201 142.914 43.8565C143.095 44.2871 143.186 44.7631 143.186 45.2845C143.186 45.6981 143.123 46.0891 142.999 46.4575C142.88 46.8258 142.704 47.1601 142.472 47.4605C142.245 47.7608 141.962 48.0243 141.622 48.251C141.287 48.4776 140.905 48.6561 140.474 48.7865C140.621 48.8715 140.757 48.9735 140.882 49.0925C141.007 49.2058 141.12 49.3418 141.222 49.5005L144.299 54.0395ZM151.709 48.676C151.709 48.404 151.669 48.149 151.59 47.911C151.516 47.6673 151.403 47.4548 151.25 47.2735C151.097 47.0921 150.901 46.9505 150.663 46.8485C150.431 46.7408 150.159 46.687 149.847 46.687C149.241 46.687 148.762 46.8598 148.411 47.2055C148.065 47.5511 147.844 48.0413 147.748 48.676H151.709ZM147.705 49.9425C147.739 50.3901 147.819 50.7783 147.943 51.107C148.068 51.43 148.232 51.6991 148.436 51.9145C148.64 52.1241 148.881 52.2828 149.159 52.3905C149.442 52.4925 149.754 52.5435 150.094 52.5435C150.434 52.5435 150.726 52.5038 150.969 52.4245C151.219 52.3451 151.434 52.2573 151.615 52.161C151.802 52.0646 151.964 51.9768 152.1 51.8975C152.242 51.8181 152.378 51.7785 152.508 51.7785C152.684 51.7785 152.814 51.8436 152.899 51.974L153.502 52.739C153.27 53.011 153.009 53.2405 152.72 53.4275C152.431 53.6088 152.128 53.7561 151.811 53.8695C151.499 53.9771 151.179 54.0536 150.85 54.099C150.527 54.1443 150.213 54.167 149.907 54.167C149.301 54.167 148.737 54.0678 148.215 53.8695C147.694 53.6655 147.241 53.368 146.855 52.977C146.47 52.5803 146.167 52.093 145.946 51.515C145.725 50.9313 145.614 50.257 145.614 49.492C145.614 48.897 145.711 48.3388 145.903 47.8175C146.096 47.2905 146.371 46.8343 146.728 46.449C147.091 46.058 147.53 45.7491 148.045 45.5225C148.567 45.2958 149.153 45.1825 149.805 45.1825C150.355 45.1825 150.862 45.2703 151.326 45.446C151.791 45.6216 152.191 45.8795 152.525 46.2195C152.859 46.5538 153.12 46.9675 153.307 47.4605C153.5 47.9478 153.596 48.506 153.596 49.135C153.596 49.4523 153.562 49.6676 153.494 49.781C153.426 49.8886 153.296 49.9425 153.103 49.9425H147.705ZM158.495 46.3895C158.671 46.2138 158.855 46.0523 159.048 45.905C159.246 45.752 159.453 45.6245 159.668 45.5225C159.889 45.4148 160.124 45.3326 160.374 45.276C160.623 45.2136 160.895 45.1825 161.19 45.1825C161.666 45.1825 162.088 45.2646 162.456 45.429C162.824 45.5876 163.13 45.8143 163.374 46.109C163.623 46.398 163.81 46.7465 163.935 47.1545C164.065 47.5568 164.131 48.0016 164.131 48.489V54.0395H162.031V48.489C162.031 47.9563 161.909 47.5455 161.666 47.2565C161.422 46.9618 161.051 46.8145 160.552 46.8145C160.189 46.8145 159.849 46.8966 159.532 47.061C159.215 47.2253 158.914 47.4491 158.631 47.7325V54.0395H156.532V45.3185H157.815C158.087 45.3185 158.266 45.446 158.351 45.701L158.495 46.3895ZM173.106 48.676C173.106 48.404 173.066 48.149 172.987 47.911C172.913 47.6673 172.8 47.4548 172.647 47.2735C172.494 47.0921 172.298 46.9505 172.06 46.8485C171.828 46.7408 171.556 46.687 171.244 46.687C170.638 46.687 170.159 46.8598 169.808 47.2055C169.462 47.5511 169.241 48.0413 169.145 48.676H173.106ZM169.102 49.9425C169.136 50.3901 169.216 50.7783 169.34 51.107C169.465 51.43 169.629 51.6991 169.833 51.9145C170.037 52.1241 170.278 52.2828 170.556 52.3905C170.839 52.4925 171.151 52.5435 171.491 52.5435C171.831 52.5435 172.123 52.5038 172.366 52.4245C172.616 52.3451 172.831 52.2573 173.012 52.161C173.199 52.0646 173.361 51.9768 173.497 51.8975C173.638 51.8181 173.774 51.7785 173.905 51.7785C174.08 51.7785 174.211 51.8436 174.296 51.974L174.899 52.739C174.667 53.011 174.406 53.2405 174.117 53.4275C173.828 53.6088 173.525 53.7561 173.208 53.8695C172.896 53.9771 172.576 54.0536 172.247 54.099C171.924 54.1443 171.61 54.167 171.304 54.167C170.697 54.167 170.134 54.0678 169.612 53.8695C169.091 53.6655 168.638 53.368 168.252 52.977C167.867 52.5803 167.564 52.093 167.343 51.515C167.122 50.9313 167.011 50.257 167.011 49.492C167.011 48.897 167.108 48.3388 167.3 47.8175C167.493 47.2905 167.768 46.8343 168.125 46.449C168.487 46.058 168.927 45.7491 169.442 45.5225C169.964 45.2958 170.55 45.1825 171.202 45.1825C171.751 45.1825 172.259 45.2703 172.723 45.446C173.188 45.6216 173.587 45.8795 173.922 46.2195C174.256 46.5538 174.517 46.9675 174.704 47.4605C174.896 47.9478 174.993 48.506 174.993 49.135C174.993 49.4523 174.959 49.6676 174.891 49.781C174.823 49.8886 174.692 49.9425 174.5 49.9425H169.102ZM190.265 45.3185L187.494 54.0395H185.811C185.618 54.0395 185.485 53.9148 185.411 53.6655L183.847 48.625C183.796 48.455 183.748 48.2878 183.703 48.1235C183.663 47.9535 183.629 47.7835 183.601 47.6135C183.567 47.7835 183.527 47.9563 183.482 48.132C183.442 48.302 183.397 48.472 183.346 48.642L181.756 53.6655C181.688 53.9148 181.538 54.0395 181.306 54.0395H179.691L176.928 45.3185H178.603C178.756 45.3185 178.886 45.3553 178.994 45.429C179.101 45.5026 179.172 45.5961 179.206 45.7095L180.456 50.3675C180.518 50.6225 180.572 50.8718 180.617 51.1155C180.668 51.3591 180.711 51.6028 180.745 51.8465C180.807 51.6028 180.872 51.3591 180.94 51.1155C181.014 50.8718 181.09 50.6225 181.17 50.3675L182.615 45.6925C182.649 45.5791 182.714 45.4856 182.81 45.412C182.912 45.3383 183.034 45.3015 183.176 45.3015H184.102C184.249 45.3015 184.374 45.3383 184.476 45.412C184.584 45.4856 184.655 45.5791 184.689 45.6925L186.091 50.3675C186.165 50.6225 186.233 50.8746 186.295 51.124C186.363 51.3676 186.428 51.6113 186.491 51.855C186.564 51.3733 186.669 50.8775 186.805 50.3675L188.089 45.7095C188.128 45.5961 188.199 45.5026 188.301 45.429C188.403 45.3553 188.525 45.3185 188.667 45.3185H190.265ZM197.309 50.3165C196.703 50.3448 196.193 50.3986 195.779 50.478C195.366 50.5516 195.034 50.648 194.785 50.767C194.536 50.886 194.357 51.0248 194.249 51.1835C194.142 51.3421 194.088 51.515 194.088 51.702C194.088 52.0703 194.196 52.3338 194.411 52.4925C194.632 52.6511 194.918 52.7305 195.269 52.7305C195.7 52.7305 196.071 52.654 196.383 52.501C196.7 52.3423 197.009 52.1043 197.309 51.787V50.3165ZM192.498 46.534C193.501 45.616 194.708 45.157 196.119 45.157C196.629 45.157 197.086 45.242 197.488 45.412C197.89 45.5763 198.23 45.8086 198.508 46.109C198.786 46.4036 198.995 46.7578 199.137 47.1715C199.284 47.5851 199.358 48.0385 199.358 48.5315V54.0395H198.406C198.208 54.0395 198.055 54.0111 197.947 53.9545C197.839 53.8921 197.754 53.7703 197.692 53.589L197.505 52.96C197.284 53.1583 197.069 53.334 196.859 53.487C196.649 53.6343 196.431 53.759 196.204 53.861C195.978 53.963 195.734 54.0395 195.473 54.0905C195.218 54.1471 194.935 54.1755 194.623 54.1755C194.255 54.1755 193.915 54.1273 193.603 54.031C193.292 53.929 193.023 53.7788 192.796 53.5805C192.569 53.3821 192.394 53.1356 192.269 52.841C192.144 52.5463 192.082 52.2035 192.082 51.8125C192.082 51.5915 192.119 51.3733 192.192 51.158C192.266 50.937 192.385 50.7273 192.549 50.529C192.719 50.3306 192.938 50.1436 193.204 49.968C193.47 49.7923 193.796 49.6393 194.181 49.509C194.572 49.3786 195.026 49.2738 195.541 49.1945C196.057 49.1095 196.646 49.0585 197.309 49.0415V48.5315C197.309 47.9478 197.185 47.5171 196.935 47.2395C196.686 46.9561 196.326 46.8145 195.856 46.8145C195.516 46.8145 195.233 46.8541 195.006 46.9335C194.785 47.0128 194.589 47.1035 194.419 47.2055C194.249 47.3018 194.094 47.3896 193.952 47.469C193.816 47.5483 193.663 47.588 193.493 47.588C193.346 47.588 193.221 47.5511 193.119 47.4775C193.017 47.3981 192.935 47.3075 192.872 47.2055L192.498 46.534ZM204.795 51.7785C205.033 52.0675 205.29 52.2715 205.568 52.3905C205.851 52.5095 206.149 52.569 206.461 52.569C206.784 52.569 207.073 52.5123 207.328 52.399C207.588 52.28 207.809 52.0986 207.991 51.855C208.172 51.6056 208.311 51.2911 208.407 50.9115C208.503 50.5261 208.552 50.0671 208.552 49.5345C208.552 48.5768 208.393 47.8855 208.076 47.4605C207.758 47.0298 207.302 46.8145 206.707 46.8145C206.305 46.8145 205.953 46.908 205.653 47.095C205.353 47.2763 205.067 47.5341 204.795 47.8685V51.7785ZM204.795 46.3895C205.146 46.0211 205.534 45.7293 205.959 45.514C206.39 45.293 206.88 45.1825 207.43 45.1825C207.934 45.1825 208.387 45.2816 208.79 45.48C209.198 45.6783 209.543 45.9645 209.827 46.3385C210.116 46.7068 210.337 47.1545 210.49 47.6815C210.643 48.2085 210.719 48.8006 210.719 49.458C210.719 50.1663 210.631 50.8095 210.456 51.3875C210.28 51.9655 210.028 52.4613 209.699 52.875C209.376 53.283 208.985 53.6003 208.526 53.827C208.067 54.0536 207.557 54.167 206.996 54.167C206.724 54.167 206.478 54.1386 206.257 54.082C206.036 54.031 205.832 53.9573 205.645 53.861C205.458 53.7646 205.285 53.6485 205.126 53.5125C204.973 53.3708 204.826 53.215 204.684 53.045L204.591 53.6315C204.557 53.7788 204.497 53.8836 204.412 53.946C204.333 54.0083 204.222 54.0395 204.081 54.0395H202.695V41.4085H204.795V46.3895ZM215.826 41.4085V54.0395H213.726V41.4085H215.826ZM224.896 48.676C224.896 48.404 224.856 48.149 224.777 47.911C224.703 47.6673 224.59 47.4548 224.437 47.2735C224.284 47.0921 224.088 46.9505 223.85 46.8485C223.618 46.7408 223.346 46.687 223.034 46.687C222.428 46.687 221.949 46.8598 221.598 47.2055C221.252 47.5511 221.031 48.0413 220.935 48.676H224.896ZM220.892 49.9425C220.926 50.3901 221.006 50.7783 221.13 51.107C221.255 51.43 221.419 51.6991 221.623 51.9145C221.827 52.1241 222.068 52.2828 222.346 52.3905C222.629 52.4925 222.941 52.5435 223.281 52.5435C223.621 52.5435 223.913 52.5038 224.156 52.4245C224.406 52.3451 224.621 52.2573 224.802 52.161C224.989 52.0646 225.151 51.9768 225.287 51.8975C225.429 51.8181 225.565 51.7785 225.695 51.7785C225.871 51.7785 226.001 51.8436 226.086 51.974L226.689 52.739C226.457 53.011 226.196 53.2405 225.907 53.4275C225.618 53.6088 225.315 53.7561 224.998 53.8695C224.686 53.9771 224.366 54.0536 224.037 54.099C223.714 54.1443 223.4 54.167 223.094 54.167C222.488 54.167 221.924 54.0678 221.402 53.8695C220.881 53.6655 220.428 53.368 220.042 52.977C219.657 52.5803 219.354 52.093 219.133 51.515C218.912 50.9313 218.801 50.257 218.801 49.492C218.801 48.897 218.898 48.3388 219.09 47.8175C219.283 47.2905 219.558 46.8343 219.915 46.449C220.278 46.058 220.717 45.7491 221.232 45.5225C221.754 45.2958 222.34 45.1825 222.992 45.1825C223.542 45.1825 224.049 45.2703 224.513 45.446C224.978 45.6216 225.378 45.8795 225.712 46.2195C226.046 46.5538 226.307 46.9675 226.494 47.4605C226.687 47.9478 226.783 48.506 226.783 49.135C226.783 49.4523 226.749 49.6676 226.681 49.781C226.613 49.8886 226.483 49.9425 226.29 49.9425H220.892ZM237.839 43.5675V46.976H242.14V48.7355H237.839V52.212H243.296V54.0395H235.544V41.7485H243.296V43.5675H237.839ZM248.132 46.3895C248.307 46.2138 248.491 46.0523 248.684 45.905C248.882 45.752 249.089 45.6245 249.305 45.5225C249.526 45.4148 249.761 45.3326 250.01 45.276C250.259 45.2136 250.531 45.1825 250.826 45.1825C251.302 45.1825 251.724 45.2646 252.093 45.429C252.461 45.5876 252.767 45.8143 253.011 46.109C253.26 46.398 253.447 46.7465 253.572 47.1545C253.702 47.5568 253.767 48.0016 253.767 48.489V54.0395H251.668V48.489C251.668 47.9563 251.546 47.5455 251.302 47.2565C251.058 46.9618 250.687 46.8145 250.189 46.8145C249.826 46.8145 249.486 46.8966 249.169 47.061C248.851 47.2253 248.551 47.4491 248.268 47.7325V54.0395H246.168V45.3185H247.452C247.724 45.3185 247.902 45.446 247.987 45.701L248.132 46.3895ZM262.742 48.676C262.742 48.404 262.703 48.149 262.623 47.911C262.55 47.6673 262.436 47.4548 262.283 47.2735C262.13 47.0921 261.935 46.9505 261.697 46.8485C261.464 46.7408 261.192 46.687 260.881 46.687C260.274 46.687 259.796 46.8598 259.444 47.2055C259.099 47.5511 258.878 48.0413 258.781 48.676H262.742ZM258.739 49.9425C258.773 50.3901 258.852 50.7783 258.977 51.107C259.101 51.43 259.266 51.6991 259.47 51.9145C259.674 52.1241 259.915 52.2828 260.192 52.3905C260.476 52.4925 260.787 52.5435 261.127 52.5435C261.467 52.5435 261.759 52.5038 262.003 52.4245C262.252 52.3451 262.467 52.2573 262.649 52.161C262.836 52.0646 262.997 51.9768 263.133 51.8975C263.275 51.8181 263.411 51.7785 263.541 51.7785C263.717 51.7785 263.847 51.8436 263.932 51.974L264.536 52.739C264.303 53.011 264.043 53.2405 263.754 53.4275C263.465 53.6088 263.162 53.7561 262.844 53.8695C262.533 53.9771 262.212 54.0536 261.884 54.099C261.561 54.1443 261.246 54.167 260.94 54.167C260.334 54.167 259.77 54.0678 259.249 53.8695C258.727 53.6655 258.274 53.368 257.889 52.977C257.503 52.5803 257.2 52.093 256.979 51.515C256.758 50.9313 256.648 50.257 256.648 49.492C256.648 48.897 256.744 48.3388 256.937 47.8175C257.129 47.2905 257.404 46.8343 257.761 46.449C258.124 46.058 258.563 45.7491 259.079 45.5225C259.6 45.2958 260.187 45.1825 260.838 45.1825C261.388 45.1825 261.895 45.2703 262.36 45.446C262.824 45.6216 263.224 45.8795 263.558 46.2195C263.893 46.5538 264.153 46.9675 264.34 47.4605C264.533 47.9478 264.629 48.506 264.629 49.135C264.629 49.4523 264.595 49.6676 264.527 49.781C264.459 49.8886 264.329 49.9425 264.136 49.9425H258.739ZM269.545 46.8315C269.817 46.3101 270.14 45.9021 270.514 45.6075C270.888 45.3071 271.33 45.157 271.84 45.157C272.243 45.157 272.566 45.2448 272.809 45.4205L272.673 46.993C272.645 47.095 272.602 47.1686 272.546 47.214C272.495 47.2536 272.424 47.2735 272.333 47.2735C272.248 47.2735 272.121 47.2593 271.951 47.231C271.786 47.2026 271.625 47.1885 271.466 47.1885C271.234 47.1885 271.027 47.2225 270.846 47.2905C270.664 47.3585 270.5 47.4576 270.353 47.588C270.211 47.7126 270.084 47.8656 269.97 48.047C269.863 48.2283 269.761 48.4351 269.664 48.6675V54.0395H267.565V45.3185H268.797C269.013 45.3185 269.163 45.3581 269.248 45.4375C269.333 45.5111 269.389 45.6471 269.418 45.8455L269.545 46.8315ZM278.354 49.4665C278.615 49.4665 278.842 49.4325 279.034 49.3645C279.227 49.2908 279.386 49.1916 279.51 49.067C279.641 48.9423 279.737 48.7921 279.799 48.6165C279.867 48.4408 279.901 48.2481 279.901 48.0385C279.901 47.6078 279.771 47.2678 279.51 47.0185C279.255 46.7635 278.87 46.636 278.354 46.636C277.839 46.636 277.451 46.7635 277.19 47.0185C276.935 47.2678 276.807 47.6078 276.807 48.0385C276.807 48.2425 276.839 48.4323 276.901 48.608C276.969 48.7836 277.065 48.9366 277.19 49.067C277.32 49.1916 277.482 49.2908 277.674 49.3645C277.873 49.4325 278.099 49.4665 278.354 49.4665ZM280.726 54.4305C280.726 54.2605 280.675 54.1216 280.573 54.014C280.471 53.9063 280.332 53.8241 280.156 53.7675C279.981 53.7051 279.774 53.6598 279.536 53.6315C279.304 53.6031 279.054 53.5833 278.788 53.572C278.527 53.555 278.255 53.5408 277.972 53.5295C277.694 53.5181 277.422 53.4955 277.156 53.4615C276.924 53.5918 276.734 53.7448 276.586 53.9205C276.445 54.0961 276.374 54.3001 276.374 54.5325C276.374 54.6855 276.411 54.8271 276.484 54.9575C276.564 55.0935 276.686 55.2096 276.85 55.306C277.02 55.4023 277.238 55.476 277.504 55.527C277.771 55.5836 278.097 55.612 278.482 55.612C278.873 55.612 279.21 55.5808 279.493 55.5185C279.777 55.4618 280.009 55.3796 280.19 55.272C280.377 55.17 280.513 55.0453 280.598 54.898C280.683 54.7563 280.726 54.6005 280.726 54.4305ZM282.817 45.616V46.398C282.817 46.6473 282.667 46.8003 282.366 46.857L281.584 47.0015C281.703 47.3018 281.763 47.6305 281.763 47.9875C281.763 48.4181 281.675 48.8091 281.499 49.1605C281.329 49.5061 281.091 49.8008 280.785 50.0445C280.479 50.2881 280.117 50.478 279.697 50.614C279.284 50.7443 278.836 50.8095 278.354 50.8095C278.184 50.8095 278.02 50.801 277.861 50.784C277.703 50.767 277.547 50.7443 277.394 50.716C277.122 50.8803 276.986 51.0645 276.986 51.2685C276.986 51.4441 277.065 51.5745 277.224 51.6595C277.388 51.7388 277.604 51.7955 277.87 51.8295C278.136 51.8635 278.439 51.8861 278.779 51.8975C279.119 51.9031 279.468 51.9201 279.825 51.9485C280.182 51.9768 280.53 52.0278 280.87 52.1015C281.21 52.1695 281.514 52.28 281.78 52.433C282.046 52.586 282.259 52.7956 282.417 53.062C282.582 53.3226 282.664 53.6598 282.664 54.0735C282.664 54.4588 282.568 54.8328 282.375 55.1955C282.188 55.5581 281.913 55.8811 281.55 56.1645C281.193 56.4478 280.751 56.6745 280.224 56.8445C279.703 57.0201 279.108 57.108 278.439 57.108C277.782 57.108 277.21 57.0428 276.722 56.9125C276.235 56.7878 275.83 56.6178 275.507 56.4025C275.184 56.1928 274.943 55.9491 274.784 55.6715C274.626 55.3938 274.546 55.1048 274.546 54.8045C274.546 54.3965 274.668 54.0565 274.912 53.7845C275.161 53.5068 275.501 53.2858 275.932 53.1215C275.7 53.0025 275.515 52.8438 275.379 52.6455C275.243 52.4471 275.175 52.1865 275.175 51.8635C275.175 51.7331 275.198 51.6 275.243 51.464C275.294 51.3223 275.365 51.1835 275.456 51.0475C275.552 50.9115 275.671 50.784 275.813 50.665C275.955 50.5403 276.122 50.4298 276.314 50.3335C275.872 50.0955 275.524 49.7781 275.269 49.3815C275.02 48.9848 274.895 48.5201 274.895 47.9875C274.895 47.5568 274.98 47.1686 275.15 46.823C275.326 46.4716 275.566 46.1741 275.872 45.9305C276.184 45.6811 276.55 45.4913 276.969 45.361C277.394 45.2306 277.856 45.1655 278.354 45.1655C278.728 45.1655 279.08 45.2051 279.408 45.2845C279.737 45.3581 280.037 45.4686 280.309 45.616H282.817ZM293.43 45.3185L288.679 56.4365C288.617 56.5838 288.534 56.6943 288.432 56.768C288.336 56.8473 288.186 56.887 287.982 56.887H286.418L288.05 53.385L284.522 45.3185H286.367C286.531 45.3185 286.659 45.3581 286.749 45.4375C286.846 45.5168 286.917 45.6075 286.962 45.7095L288.815 50.2315C288.877 50.3845 288.928 50.5375 288.968 50.6905C289.013 50.8435 289.056 50.9993 289.095 51.158C289.146 50.9993 289.197 50.8435 289.248 50.6905C289.299 50.5318 289.356 50.376 289.418 50.223L291.169 45.7095C291.215 45.5961 291.288 45.5026 291.39 45.429C291.498 45.3553 291.617 45.3185 291.747 45.3185H293.43Z" fill="#898989"/>
</svg>
